<?xml version="1.0" encoding="UTF-8"?>
<svg xmlns="http://www.w3.org/2000/svg" width="1000" height="320" fill="none">
  <defs>
    <filter id="glow" x="-20%" y="-20%" width="140%" height="140%">
      <feGaussianBlur stdDeviation="2" result="blur" />
      <feComposite in="SourceGraphic" in2="blur" operator="over" />
    </filter>
  </defs>
  
  <style>
    .badge-bg { fill: #09090b; stroke: #10b981; stroke-opacity: 0.1; }
    .badge-label { fill: #10b981; font-family: 'JetBrains Mono', monospace; font-size: 12px; font-weight: bold; }
    .badge-value { fill: #f4f4f5; font-family: 'JetBrains Mono', monospace; font-size: 13px; }
    .accent-line { fill: #10b981; }
  </style>

  <g transform="translate(10, 10)">
    <g transform="translate(0, 0)">
      <rect width="235" height="50" rx="4" class="badge-bg"/>
      <rect width="4" height="50" rx="2" class="accent-line"/>
      <text x="20" y="30" class="badge-label">[ AWS ]</text>
    </g>
    <g transform="translate(245, 0)">
      <rect width="235" height="50" rx="4" class="badge-bg"/>
      <rect width="4" height="50" rx="2" class="accent-line"/>
      <text x="20" y="30" class="badge-label">[ TERRAFORM ]</text>
    </g>
    <g transform="translate(490, 0)">
      <rect width="235" height="50" rx="4" class="badge-bg"/>
      <rect width="4" height="50" rx="2" class="accent-line"/>
      <text x="20" y="30" class="badge-label">[ KUBERNETES ]</text>
    </g>
    <g transform="translate(735, 0)">
      <rect width="235" height="50" rx="4" class="badge-bg"/>
      <rect width="4" height="50" rx="2" class="accent-line"/>
      <text x="20" y="30" class="badge-label">[ DOCKER ]</text>
    </g>
    <g transform="translate(0, 60)">
      <rect width="235" height="50" rx="4" class="badge-bg"/>
      <rect width="4" height="50" rx="2" class="accent-line"/>
      <text x="20" y="30" class="badge-label">[ GITHUB ACTIONS ]</text>
    </g>
    <g transform="translate(245, 60)">
      <rect width="235" height="50" rx="4" class="badge-bg"/>
      <rect width="4" height="50" rx="2" class="accent-line"/>
      <text x="20" y="30" class="badge-label">[ GO ]</text>
    </g>
    <g transform="translate(490, 60)">
      <rect width="235" height="50" rx="4" class="badge-bg"/>
      <rect width="4" height="50" rx="2" class="accent-line"/>
      <text x="20" y="30" class="badge-label">[ RUST ]</text>
    </g>
    <g transform="translate(735, 60)">
      <rect width="235" height="50" rx="4" class="badge-bg"/>
      <rect width="4" height="50" rx="2" class="accent-line"/>
      <text x="20" y="30" class="badge-label">[ PYTHON ]</text>
    </g>
    <g transform="translate(0, 120)">
      <rect width="235" height="50" rx="4" class="badge-bg"/>
      <rect width="4" height="50" rx="2" class="accent-line"/>
      <text x="20" y="30" class="badge-label">[ TYPESCRIPT ]</text>
    </g>
    <g transform="translate(245, 120)">
      <rect width="235" height="50" rx="4" class="badge-bg"/>
      <rect width="4" height="50" rx="2" class="accent-line"/>
      <text x="20" y="30" class="badge-label">[ JAVASCRIPT ]</text>
    </g>
    <g transform="translate(490, 120)">
      <rect width="235" height="50" rx="4" class="badge-bg"/>
      <rect width="4" height="50" rx="2" class="accent-line"/>
      <text x="20" y="30" class="badge-label">[ SOLIDITY ]</text>
    </g>
    <g transform="translate(735, 120)">
      <rect width="235" height="50" rx="4" class="badge-bg"/>
      <rect width="4" height="50" rx="2" class="accent-line"/>
      <text x="20" y="30" class="badge-label">[ REDIS ]</text>
    </g>
    <g transform="translate(0, 180)">
      <rect width="235" height="50" rx="4" class="badge-bg"/>
      <rect width="4" height="50" rx="2" class="accent-line"/>
      <text x="20" y="30" class="badge-label">[ PROMETHEUS ]</text>
    </g>
    <g transform="translate(245, 180)">
      <rect width="235" height="50" rx="4" class="badge-bg"/>
      <rect width="4" height="50" rx="2" class="accent-line"/>
      <text x="20" y="30" class="badge-label">[ GRAFANA ]</text>
    </g>
    <g transform="translate(490, 180)">
      <rect width="235" height="50" rx="4" class="badge-bg"/>
      <rect width="4" height="50" rx="2" class="accent-line"/>
      <text x="20" y="30" class="badge-label">[ FASTAPI ]</text>
    </g>
    <g transform="translate(735, 180)">
      <rect width="235" height="50" rx="4" class="badge-bg"/>
      <rect width="4" height="50" rx="2" class="accent-line"/>
      <text x="20" y="30" class="badge-label">[ LINUX ]</text>
    </g>
    <g transform="translate(0, 240)">
      <rect width="235" height="50" rx="4" class="badge-bg"/>
      <rect width="4" height="50" rx="2" class="accent-line"/>
      <text x="20" y="30" class="badge-label">[ BASH ]</text>
    </g>
  </g>
</svg>